<svg width="16" height="16" viewBox="0 0 16 16" fill="none" xmlns="http://www.w3.org/2000/svg">
<path fill-rule="evenodd" clip-rule="evenodd" d="M1.56006 10.7498C1.34606 10.7498 1.14606 10.6158 1.07206 10.4025C0.595395 9.02984 0.538062 7.55984 0.905395 6.15184C1.40006 4.25651 2.60339 2.66717 4.29339 1.6765C5.98339 0.685838 7.95739 0.413172 9.85273 0.907838C10.9577 1.19651 11.968 1.73131 12.8178 2.4733V1.50357C12.8178 1.21824 13.0491 0.986905 13.3345 0.986905C13.6198 0.986905 13.8511 1.21824 13.8511 1.50357V3.77024C13.8511 4.05557 13.6198 4.2869 13.3345 4.2869H11.0678C10.7825 4.2869 10.5505 4.05557 10.5505 3.77024C10.5505 3.48491 10.7825 3.25357 11.0678 3.25357H12.1398C11.4099 2.61565 10.5418 2.15536 9.59206 1.90784C7.96273 1.48317 6.26806 1.71784 4.81606 2.5685C3.36406 3.41917 2.33006 4.7845 1.90539 6.4125C1.58939 7.6225 1.63939 8.88451 2.04806 10.0638C2.14206 10.3332 1.9994 10.6272 1.7294 10.7212C1.6734 10.7405 1.61606 10.7498 1.56006 10.7498ZM2.15113 14.504C2.15113 14.7886 2.38246 15.0206 2.66779 15.0206C2.95313 15.0206 3.18446 14.7886 3.18446 14.504V13.5341C4.03417 14.2757 5.04409 14.811 6.1492 15.0997C6.7672 15.261 7.38786 15.3377 7.9992 15.3377C11.2552 15.3377 14.2365 13.1497 15.0965 9.85504C15.4639 8.4477 15.4065 6.9777 14.9299 5.60504C14.8365 5.3357 14.5419 5.19237 14.2725 5.28637C14.0032 5.3797 13.8605 5.67437 13.9539 5.9437C14.3632 7.12304 14.4125 8.38504 14.0965 9.59504C13.2192 12.9557 9.7692 14.9764 6.40986 14.0997C5.46064 13.8517 4.59274 13.3917 3.86258 12.754H4.93446C5.2198 12.754 5.45113 12.522 5.45113 12.2366C5.45113 11.9513 5.2198 11.72 4.93446 11.72H2.66779C2.38246 11.72 2.15113 11.9513 2.15113 12.2366V14.504ZM11.1605 7.58111H8.39088V4.84016C8.39088 4.5441 8.15076 4.30397 7.85469 4.30397C7.55863 4.30397 7.31851 4.5441 7.31851 4.84016V7.58111H4.83949C4.55707 7.58111 4.32786 7.81032 4.32786 8.09274C4.32786 8.37516 4.55707 8.60437 4.83949 8.60437H7.31851V11.1605C7.31851 11.4572 7.55863 11.6966 7.85469 11.6966C8.15076 11.6966 8.39088 11.4572 8.39088 11.1605V8.60437H11.1605C11.4429 8.60437 11.6721 8.37516 11.6721 8.09274C11.6721 7.81032 11.4429 7.58111 11.1605 7.58111Z" fill="white"/>
<mask id="mask0_15373_56433" style="mask-type:luminance" maskUnits="userSpaceOnUse" x="0" y="0" width="16" height="16">
<path fill-rule="evenodd" clip-rule="evenodd" d="M1.56006 10.7498C1.34606 10.7498 1.14606 10.6158 1.07206 10.4025C0.595395 9.02984 0.538062 7.55984 0.905395 6.15184C1.40006 4.25651 2.60339 2.66717 4.29339 1.6765C5.98339 0.685838 7.95739 0.413172 9.85273 0.907838C10.9577 1.19651 11.968 1.73131 12.8178 2.4733V1.50357C12.8178 1.21824 13.0491 0.986905 13.3345 0.986905C13.6198 0.986905 13.8511 1.21824 13.8511 1.50357V3.77024C13.8511 4.05557 13.6198 4.2869 13.3345 4.2869H11.0678C10.7825 4.2869 10.5505 4.05557 10.5505 3.77024C10.5505 3.48491 10.7825 3.25357 11.0678 3.25357H12.1398C11.4099 2.61565 10.5418 2.15536 9.59206 1.90784C7.96273 1.48317 6.26806 1.71784 4.81606 2.5685C3.36406 3.41917 2.33006 4.7845 1.90539 6.4125C1.58939 7.6225 1.63939 8.88451 2.04806 10.0638C2.14206 10.3332 1.9994 10.6272 1.7294 10.7212C1.6734 10.7405 1.61606 10.7498 1.56006 10.7498ZM2.15113 14.504C2.15113 14.7886 2.38246 15.0206 2.66779 15.0206C2.95313 15.0206 3.18446 14.7886 3.18446 14.504V13.5341C4.03417 14.2757 5.04409 14.811 6.1492 15.0997C6.7672 15.261 7.38786 15.3377 7.9992 15.3377C11.2552 15.3377 14.2365 13.1497 15.0965 9.85504C15.4639 8.4477 15.4065 6.9777 14.9299 5.60504C14.8365 5.3357 14.5419 5.19237 14.2725 5.28637C14.0032 5.3797 13.8605 5.67437 13.9539 5.9437C14.3632 7.12304 14.4125 8.38504 14.0965 9.59504C13.2192 12.9557 9.7692 14.9764 6.40986 14.0997C5.46064 13.8517 4.59274 13.3917 3.86258 12.754H4.93446C5.2198 12.754 5.45113 12.522 5.45113 12.2366C5.45113 11.9513 5.2198 11.72 4.93446 11.72H2.66779C2.38246 11.72 2.15113 11.9513 2.15113 12.2366V14.504ZM11.1605 7.58111H8.39088V4.84016C8.39088 4.5441 8.15076 4.30397 7.85469 4.30397C7.55863 4.30397 7.31851 4.5441 7.31851 4.84016V7.58111H4.83949C4.55707 7.58111 4.32786 7.81032 4.32786 8.09274C4.32786 8.37516 4.55707 8.60437 4.83949 8.60437H7.31851V11.1605C7.31851 11.4572 7.55863 11.6966 7.85469 11.6966C8.15076 11.6966 8.39088 11.4572 8.39088 11.1605V8.60437H11.1605C11.4429 8.60437 11.6721 8.37516 11.6721 8.09274C11.6721 7.81032 11.4429 7.58111 11.1605 7.58111Z" fill="white"/>
</mask>
<g mask="url(#mask0_15373_56433)">
</g>
</svg>
